{"title":"Secret At Arrow Lake 2009 XViD DVDRiP DTRG - SAFCuk009","uid":6454679,"size":1146082632,"categoryP":"video","categoryS":"movies","magnet":"?xt=urn:btih:e0c64f4a3caf90c0032890ca3f558ffc7cb983ee&amp;dn=Secret+At+Arrow+Lake+2009+XViD+DVDRiP+DTRG+-+SAFCuk009&amp;tr=udp%3A%2F%2Ftracker.openbittorrent.com%3A80&amp;tr=udp%3A%2F%2Fopen.demonii.com%3A1337&amp;tr=udp%3A%2F%2Ftracker.coppersurfer.tk%3A6969&amp;tr=udp%3A%2F%2Fexodus.desync.com%3A6969","seeders":0,"leechers":3,"uploader":"SAFCukO09","files":3,"time":1307546266,"description":"Format : AVI\nFormat/Info : Audio Video Interleave\nFile size : 1.07 GiB\nDuration : 1h 23mn\nOverall bit rate : 1 828 Kbps\nWriting library : VirtualDub build 32839/release\n\nVideo\nID : 0\nFormat : MPEG-4 Visual\nFormat profile : Advanced Simple@L5\nFormat settings, BVOP : 2\nFormat settings, QPel : No\nFormat settings, GMC : No warppoints\nFormat settings, Matrix : Default (H.263)\nMuxing mode : Packed bitstream\nCodec ID : XVID\nCodec ID/Hint : XviD\nDuration : 1h 23mn\nBit rate : 1 624 Kbps\nWidth : 720 pixels\nHeight : 400 pixels\nDisplay aspect ratio : 16:9\nFrame rate : 29.970 fps\nColor space : YUV\nChroma subsampling : 4:2:0\nBit depth : 8 bits\nScan type : Progressive\nCompression mode : Lossy\nBits/(Pixel*Frame) : 0.188\nStream size : 971 MiB (89%)\nWriting library : XviD 63\n\nAudio\nID : 1\nFormat : AC-3\nFormat/Info : Audio Coding 3\nMode extension : CM (complete main)\nCodec ID : 2000\nDuration : 1h 23mn\nBit rate mode : Constant\nBit rate : 192 Kbps\nChannel(s) : 2 channels\nChannel positions : Front: L R\nSampling rate : 48.0 KHz\nBit depth : 16 bits\nCompression mode : Lossy\nStream size : 115 MiB (11%)\nAlignment : Aligned on interleaves\nInterleave, duration : 33 ms (1.00 video frame)\nInterleave, preload duration : 512 ms\n\n\n\n\n\n\n\n\n\n\n\n\nStoryline\n\nMia Williams, raised on the family Bed &amp; Breakfast by Sara, a loving single mom grows up believing her father was lost, M.I.A., in the Gulf War. A tragic accident results in the sudden death of Sara and Mia finds herself alone to care for the B&amp;B while attending college. Daniel Williams, a hard-edged businessman from New York, arrives at the B&amp;B and Mia suspects he may be her lost father. The townsfolk believe he may be responsible for Sara's death. As events unfold, Daniel clears his name and finds acceptance from the community and Mia finds a father at last.\n\n\n\n\n\n\n\n\n\n\n\n\n\nRelease date June 7th 2011\n\nSource Used\n\nSecret at Arrow Lake 2009 NTSC DVDR-STOCK ........... Thanks\n\n\nNot expecting many to want this but was asked so here it is\n\n\n\nGreetz to IMAGiNE,Flawl3ss,DiLLoN,BDK,NOiR,TOXiC,THC,Ez,Rx,Boobyblue,TaRiQ786,LKRG,EP1C\n","torrent":{"xt":"urn:btih:e0c64f4a3caf90c0032890ca3f558ffc7cb983ee","amp;dn":"Secret+At+Arrow+Lake+2009+XViD+DVDRiP+DTRG+-+SAFCuk009","amp;tr":["udp%3A%2F%2Ftracker.openbittorrent.com%3A80","udp%3A%2F%2Fopen.demonii.com%3A1337","udp%3A%2F%2Ftracker.coppersurfer.tk%3A6969","udp%3A%2F%2Fexodus.desync.com%3A6969"],"infoHash":"e0c64f4a3caf90c0032890ca3f558ffc7cb983ee","infoHashBuffer":{"type":"Buffer","data":[224,198,79,74,60,175,144,192,3,40,144,202,63,85,143,252,124,185,131,238]},"announce":[],"urlList":[]}}